HIERARCHY
ROOT Hips
{
	OFFSET 0.000000 0.000000 0.000000
	CHANNELS 6 Xposition Yposition Zposition Xrotation Yrotation Zrotation
	JOINT LeftUpLeg_virtual
	{
		OFFSET 0.000000 0.000000 0.000000
		CHANNELS 3 Xrotation Yrotation Zrotation
		JOINT LeftUpLeg
		{
			OFFSET 10.205400 -3.823500 0.155100
			CHANNELS 3 Xrotation Yrotation Zrotation
			JOINT LeftLeg
			{
				OFFSET 0.708757 -12.982077 0.567790
				CHANNELS 3 Xrotation Yrotation Zrotation
				JOINT LeftFoot
				{
					OFFSET -0.708756 -10.717838 -2.184338
					CHANNELS 3 Xrotation Yrotation Zrotation
					JOINT LeftToeBase
					{
						OFFSET 0.108149 -7.191104 7.560241
						CHANNELS 3 Xrotation Yrotation Zrotation
						JOINT LeftToe_End
						{
							OFFSET 0.070230 0.081724 4.490308
							CHANNELS 3 Xrotation Yrotation Zrotation
							End Site
							{
								OFFSET 0 0 0
							}
						}
					}
				}
			}
		}
	}
	JOINT RightUpLeg_virtual
	{
		OFFSET 0.000000 0.000000 0.000000
		CHANNELS 3 Xrotation Yrotation Zrotation
		JOINT RightUpLeg
		{
			OFFSET -10.205400 -3.823500 0.005500
			CHANNELS 3 Xrotation Yrotation Zrotation
			JOINT RightLeg
			{
				OFFSET -0.708756 -12.982134 0.610632
				CHANNELS 3 Xrotation Yrotation Zrotation
				JOINT RightFoot
				{
					OFFSET 0.708754 -10.717769 -1.945823
					CHANNELS 3 Xrotation Yrotation Zrotation
					JOINT RightToeBase
					{
						OFFSET -0.108140 -7.191069 7.372968
						CHANNELS 3 Xrotation Yrotation Zrotation
						JOINT RightToe_End
						{
							OFFSET -0.070227 0.081735 4.479403
							CHANNELS 3 Xrotation Yrotation Zrotation
							End Site
							{
								OFFSET 0 0 0
							}
						}
					}
				}
			}
		}
	}
	JOINT Spine_virtual
	{
		OFFSET 0.000000 0.000000 0.000000
		CHANNELS 3 Xrotation Yrotation Zrotation
		JOINT Spine
		{
			OFFSET 0.000000 6.876099 0.125700
			CHANNELS 3 Xrotation Yrotation Zrotation
			JOINT Spine1
			{
				OFFSET 0.000000 5.730043 0.104720
				CHANNELS 3 Xrotation Yrotation Zrotation
				JOINT Spine1_split
				{
					OFFSET 0.000000 5.730043 0.104720
					CHANNELS 3 Xrotation Yrotation Zrotation
					JOINT Spine2
					{
						OFFSET 0.000000 5.730043 0.104720
						CHANNELS 3 Xrotation Yrotation Zrotation
						JOINT Neck_virtual
						{
							OFFSET 0.000000 0.000000 0.000000
							CHANNELS 3 Xrotation Yrotation Zrotation
							JOINT Neck
							{
								OFFSET 0.000000 10.314075 0.188496
								CHANNELS 3 Xrotation Yrotation Zrotation
								JOINT Head
								{
									OFFSET 0.000000 7.643700 -2.377400
									CHANNELS 3 Xrotation Yrotation Zrotation
									JOINT HeadTop_End
									{
										OFFSET 0.000000 43.788605 -13.619600
										CHANNELS 3 Xrotation Yrotation Zrotation
										End Site
										{
											OFFSET 0 0 0
										}
									}
								}
							}
						}
						JOINT LeftShoulder_virtual
						{
							OFFSET 0.000000 0.000000 0.000000
							CHANNELS 3 Xrotation Yrotation Zrotation
							JOINT LeftShoulder
							{
								OFFSET 2.196100 4.412489 0.087492
								CHANNELS 3 Xrotation Yrotation Zrotation
								JOINT LeftShoulder_split
								{
									OFFSET 2.196100 4.412489 0.087492
									CHANNELS 3 Xrotation Yrotation Zrotation
									JOINT LeftArm
									{
										OFFSET 8.771219 -2.981674 -0.026999
										CHANNELS 3 Xrotation Yrotation Zrotation
										JOINT LeftForeArm
										{
											OFFSET 8.512804 0.000000 -0.000000
											CHANNELS 3 Xrotation Yrotation Zrotation
											JOINT LeftHand
											{
												OFFSET 18.484802 0.000000 -0.000000
												CHANNELS 3 Xrotation Yrotation Zrotation
												End Site
												{
													OFFSET 0 0 0
												}
											}
										}
									}
								}
							}
						}
						JOINT RightShoulder_virtual
						{
							OFFSET 0.000000 0.000000 0.000000
							CHANNELS 3 Xrotation Yrotation Zrotation
							JOINT RightShoulder
							{
								OFFSET -2.196100 4.412496 0.070690
								CHANNELS 3 Xrotation Yrotation Zrotation
								JOINT RightShoulder_split
								{
									OFFSET -2.196100 4.412496 0.070690
									CHANNELS 3 Xrotation Yrotation Zrotation
									JOINT RightArm
									{
										OFFSET -8.771282 -2.981682 -0.094208
										CHANNELS 3 Xrotation Yrotation Zrotation
										JOINT RightForeArm
										{
											OFFSET -8.494598 0.000000 0.000000
											CHANNELS 3 Xrotation Yrotation Zrotation
											JOINT RightHand
											{
												OFFSET -18.483803 0.000000 0.000001
												CHANNELS 3 Xrotation Yrotation Zrotation
												End Site
												{
													OFFSET 0 0 0
												}
											}
										}
									}
								}
							}
						}
					}
				}
			}
		}
	}
}
MOTION
Frames: 6
Frame Time: 0.03333333
-4.239492 29.380264 -0.090561 0.000000 0.000000 0.000000 24.806175 -64.811426 18.469060 -61.813711 -17.249959 19.778157 43.747976 -5.422164 7.073498 -2.562102 1.732202 -17.487214 0.958971 2.970236 -1.626635 0.000000 0.000000 0.000000 21.510062 -68.431918 17.883616 -44.644261 1.279276 -21.253278 58.288015 -4.383634 2.804122 4.480288 -2.327885 20.592752 -1.804433 0.092365 4.813225 0.000000 0.000000 0.000000 27.760378 -67.419541 20.466191 8.147581 8.299787 -3.515289 -0.227252 11.418662 3.176226 0.278898 0.972263 0.277508 0.000000 0.000000 0.000000 11.319328 12.652655 0.480376 -0.314590 10.839621 -6.052220 -12.499781 10.011656 8.085408 0.000000 0.000000 0.000000 5.297697 13.857900 1.093233 5.652180 5.248992 -7.837109 10.072527 8.987066 -2.659782 -62.448898 -30.808248 -46.279200 6.759919 -77.842047 3.854429 0.000000 0.000000 0.000000 6.387201 13.033574 1.737006 -13.621363 5.204836 -1.378321 -4.929438 -2.516862 -9.799537 -79.034940 38.010105 106.578094 -7.549702 47.408726 5.995557 0.000000 0.000000 0.000000 
-4.033182 29.799631 -2.708473 0.000000 0.000000 0.000000 23.058707 -62.584614 15.550792 -63.471418 -15.725554 17.183421 44.704432 -3.929297 6.201053 -1.493883 1.330051 -17.678865 0.038980 2.514500 -0.820116 0.000000 0.000000 0.000000 20.929240 -68.114102 16.286117 -42.729541 -0.724155 -18.640315 55.658334 -2.692959 1.720603 4.442092 -0.073464 24.959297 -2.735980 0.819297 2.465602 0.000000 0.000000 0.000000 29.822453 -68.403054 21.828243 7.282232 8.444798 -2.582692 -0.674552 11.521574 3.318453 0.079213 0.313377 0.291627 0.000000 0.000000 0.000000 11.421033 12.936236 0.453366 0.903806 10.987724 -6.806849 -12.062617 10.870372 7.672604 0.000000 0.000000 0.000000 5.410544 13.934242 1.128362 5.494300 5.211725 -7.891193 9.884986 9.325554 -2.212739 -62.161825 -30.736729 -45.476455 5.884910 -76.749333 2.618439 0.000000 0.000000 0.000000 6.412547 13.263642 1.904307 -13.308407 5.678291 -1.445902 -5.435917 -2.438734 -10.540749 -78.334381 37.104306 105.375216 -7.248580 46.461918 5.732761 0.000000 0.000000 0.000000 
-3.722178 30.172754 -5.919537 0.000000 0.000000 0.000000 22.062421 -63.127006 13.682569 -64.044676 -10.912268 13.798708 45.442912 -2.135859 4.817833 0.561313 -0.108013 -17.735768 -0.866617 1.714675 0.903036 0.000000 0.000000 0.000000 22.761913 -69.085902 16.309129 -38.742783 -4.361606 -12.971187 51.040170 -2.449779 0.542542 1.190757 0.443023 26.268197 -3.184437 1.087615 -0.089107 0.000000 0.000000 0.000000 32.662398 -70.502620 23.862188 6.147575 8.834912 -1.158550 -0.917490 11.836972 3.613445 0.291512 0.087356 0.568908 0.000000 0.000000 0.000000 11.628534 13.422225 0.728397 1.948161 10.959987 -8.083461 -10.736500 11.620664 6.058570 0.000000 0.000000 0.000000 5.653083 14.195233 1.448043 5.353986 5.019390 -8.398669 10.192160 9.311022 -1.834766 -61.575576 -31.413881 -45.282313 6.959170 -76.975522 3.183383 0.000000 0.000000 0.000000 6.563251 13.637974 2.365774 -12.915977 6.503632 -1.203480 -6.069607 -2.413645 -10.658860 -77.551190 37.680972 103.561821 -6.820459 45.897003 5.321087 0.000000 0.000000 0.000000 
-3.455420 30.291498 -9.471392 0.000000 0.000000 0.000000 23.329259 -67.133315 14.369419 -63.475373 -4.746228 10.371142 46.567916 -0.457148 3.278106 2.795381 -1.932662 -17.307901 -1.106817 0.831911 2.846430 0.000000 0.000000 0.000000 26.964929 -71.973801 18.758399 -34.345719 -8.421758 -6.559992 47.684679 -3.858439 -0.218524 -4.288707 -1.218863 23.735777 -3.202311 0.722350 -2.193677 0.000000 0.000000 0.000000 37.431779 -73.485493 27.746139 5.062529 9.340308 0.358143 -0.986462 12.329460 4.020384 0.496929 0.028206 0.883549 0.000000 0.000000 0.000000 11.746605 14.040500 1.252158 2.763038 10.719348 -9.467156 -9.058678 12.192211 3.653166 0.000000 0.000000 0.000000 5.909714 14.614137 1.956661 5.294907 4.782707 -9.207120 11.016996 8.836572 -1.511910 -60.526029 -32.666411 -45.480799 9.410671 -78.002454 5.071325 0.000000 0.000000 0.000000 6.818174 14.128140 2.999320 -12.511135 7.565964 -0.772639 -6.782859 -2.218298 -10.529434 -76.532543 39.210282 101.550891 -6.358260 45.762814 4.826729 0.000000 0.000000 0.000000 
-3.270287 30.007671 -13.116179 0.000000 0.000000 0.000000 28.922149 -73.472803 19.663997 -62.841354 0.873389 7.528437 48.827188 0.567802 1.822176 4.864342 -3.561511 -16.480201 -0.128381 0.220407 3.895826 0.000000 0.000000 0.000000 35.182653 -76.500127 25.924109 -30.613140 -11.845203 -2.273540 48.249631 -6.311567 -0.281076 -10.708885 -4.180739 18.119934 -4.183573 -0.194631 -3.450142 0.000000 0.000000 0.000000 43.902021 -76.468961 33.582828 4.166105 9.933236 1.595490 -0.978795 12.955381 4.492235 0.567567 0.195692 1.090068 0.000000 0.000000 0.000000 11.675928 14.712023 1.879396 3.346001 10.160334 -10.526690 -7.666656 12.515519 1.124299 0.000000 0.000000 0.000000 6.101664 15.163006 2.506615 5.409352 4.736814 -10.306650 11.623000 7.511692 -0.699052 -59.024726 -34.167967 -45.784612 12.399700 -79.118316 7.569006 0.000000 0.000000 0.000000 7.058853 14.708401 3.633077 -12.262915 8.664454 -0.294470 -6.781007 -1.683002 -10.136808 -75.377005 40.671010 99.802833 -5.982745 46.306545 4.338089 0.000000 0.000000 0.000000 
-3.216249 29.291824 -16.941626 0.000000 0.000000 0.000000 44.863623 -79.959303 35.691546 -63.265392 4.307517 6.183451 52.325768 0.573274 0.574291 5.301598 -4.203946 -15.270804 2.022342 0.057433 3.605720 0.000000 0.000000 0.000000 54.161191 -81.710660 44.916277 -28.608760 -13.896652 -2.240756 53.330503 -8.414756 0.269106 -16.210853 -6.929021 11.279615 -6.241114 -1.256810 -3.900120 0.000000 0.000000 0.000000 53.377949 -78.958476 42.605880 3.492326 10.575281 2.402753 -0.996256 13.636120 4.900148 0.596683 0.676055 1.046372 0.000000 0.000000 0.000000 11.474622 15.399169 2.366525 3.884372 9.270925 -11.034788 -6.936843 12.731332 -0.901758 0.000000 0.000000 0.000000 6.178483 15.852902 2.924128 5.728523 5.022564 -11.598121 11.392278 5.589675 0.697308 -57.283277 -35.561708 -45.911562 14.512824 -79.800051 9.363752 0.000000 0.000000 0.000000 7.247551 15.371851 4.078721 -12.240738 9.551526 0.014021 -5.621853 -0.944241 -9.579679 -74.622849 41.356283 98.863539 -5.759603 47.320227 3.911215 0.000000 0.000000 0.000000 
